<?xml version="1.0" encoding="UTF-8"?>
<svg version="1.1" viewBox="0 0 896 896" width="1280" height="1280" xmlns="http://www.w3.org/2000/svg">
<path transform="translate(0)" d="m0 0h896v896h-896z" fill="#FDF6ED"/>
<path transform="translate(458,112)" d="m0 0h17l11 4 8 7 4 6 2 5 1 10-1 5 10 1 23 6 24 10 6 2 8-11 9-9 14-9 12-5 21-5 15 1 15 4 12 5 14 9 10 9 9 11 8 14 6 11 9 9 9 11 13 18 10 14 9 15 8 14 8 16 9 20 9 25 8 30 4 20 4 30 1 16v34l-2 24-5 33-7 30-12 36-13 29-12 22-11 18-16 23-5 6-3-1-8-10-11-10 1-4 9-8 6-10 4-13v-17l-4-13-7-13-9-10-11-8-15-8-15-5-10-2h-20l-21 3-9-27-12-28-1-7 6-5 11-6 19-12 10-8 9-9 10-14 9-17 4-12 3-16 1-10v-11l-2-19-6-24-8-22-6-15 2-5 2-2-1-6-4-3v-4l15-9 9-8 8-13 5-14 1-8v-12l-3-15-8-16-10-11-10-7-15-7-10-2h-14l-16 4-13 7-8 7-8 13-5 10-3 3-7-1-18-10-20-8-20-5-16-3 6 8 1 6-4 6-8 4-13 3-10 1h-11l-8-2-3-4-1-6 4-6 7-4 7-3 9-7 8-11 3-6v-10l-4-4-3-1h-7l-10 3-10 6-8 7-9 14-4 6-3 3h-6l-6-3h-9l-25 5-21 7-17 8-9 6h-8l-4-4-6-14-9-11-10-7-12-5-10-2h-13l-16 4-11 6-11 9-10 12-6 12-3 14v15l3 14 7 13 9 10 7 6 11 6 1 4-6 7 2 4 3 5-5 13-7 18-6 21-3 19v26l3 18 5 16 8 16 8 11 11 12 14 11 13 8 16 9 2 3v6l-14 29-7 18-5 20-1 7-3-1-6-7-10-7-9-4-8-2h-19l-13 4-11 6-6 5-9 13-4 10-1 5-1 66-1 27-6-5-7-11-18-27-14-25-12-25-10-27-8-27-6-27-4-30-1-16v-44l2-25 4-26 8-32 9-27 11-26 13-25 11-18 16-24 10-13 6-8 6-5 8-16 8-14 12-14 13-10 16-8 15-4 5-1 16-1 18 5 16 8 9 6 7 6 9 12v2l25-10 20-6 27-5 13-1 2-6 9-10 10-8 16-8z" fill="#50B27B"/>
<path transform="translate(714,192)" d="m0 0 7 6 9 10 10 13 10 14 10 15 12 20 8 15 11 25 9 25 8 30 4 20 4 30 1 16v34l-2 24-5 33-7 30-12 36-13 29-12 22-11 18-16 23-5 6-3-1-8-10-11-10 1-4 9-8 6-10 4-13v-17l-4-13-7-13-9-10-11-8-15-8-15-5-10-2h-24l3-3-10-30-6-14v-4l16-9 17-13 14-14 11-16 8-15 7-21 3-15 1-9v-23l-3-21-6-23-7-19-6-13 1-5 9-8 5-4 10-13 8-17 4-17v-18z" fill="#50B27B"/>
<path transform="translate(401,565)" d="m0 0h17l12 3 10 4 11 8 8 10 8 15 32 72 19 42 14 33 3 12-1 14-4 9-4 6-9 8-12 5-5 1h-13l-10-3-10-6-6-5-6-9-5-15-1-8h-53l-4 17-5 10-7 8-10 7-12 4h-18l-12-4-11-8-7-9-3-8-1-4v-13l5-19 9-28 7-22 17-55 12-39 5-10 9-10 10-7 11-4z" fill="#13130F"/>
<path transform="translate(458,112)" d="m0 0h17l11 4 8 7 4 6 2 5 1 10-1 5 10 1 23 6 24 10 6 2 8-11 9-9 14-9 12-5 21-5 15 1 15 4 12 5 14 9 10 9 9 11 8 14 4 8 3 20v18l-4 17-8 17-8 10-6 7-10 8-1 5 8 18 8 24 5 24 1 10v23l-3 19-6 21-8 16-7 12-9 11-14 14-18 13-11 6h-2l6 16 7 19 4 14-4 2-14 3h-3l-9-27-12-28-1-7 6-5 11-6 19-12 10-8 9-9 10-14 9-17 4-12 3-16 1-10v-11l-2-19-6-24-8-22-6-15 2-5 2-2-1-6-4-3v-4l15-9 9-8 8-13 5-14 1-8v-12l-3-15-8-16-10-11-10-7-15-7-10-2h-14l-16 4-13 7-8 7-8 13-5 10-3 3-7-1-18-10-20-8-20-5-16-3 6 8 1 6-4 6-8 4-13 3-10 1h-11l-8-2-3-4-1-6 4-6 7-4 7-3 9-7 8-11 3-6v-10l-4-4-3-1h-7l-10 3-10 6-8 7-9 14-4 6-3 3h-6l-6-3h-9l-25 5-21 7-17 8-9 6h-8l-4-4-6-14-9-11-10-7-12-5-10-2h-13l-16 4-11 6-11 9-10 12-6 12-3 14v15l3 14 7 13 9 10 7 6 11 6 1 4-6 7 2 4 3 5-5 13-7 18-6 21-3 19v26l3 18 5 16 8 16 8 11 11 12 14 11 13 8 16 9 2 3v6l-14 29-7 18-5 20-1 7-3-1-6-7-11-8 3-10 7-21 10-21v-4l-11-6-10-7-11-9-12-12-9-12-9-15-8-21-5-25v-31l3-21 7-25 6-16 4-9 2-5-13-12-5-5-7-9-8-16-3-9-2-10v-22l1-11 8-16 7-12 12-14 13-10 16-8 15-4 5-1 16-1 18 5 16 8 9 6 7 6 9 12v2l25-10 20-6 27-5 13-1 2-6 9-10 10-8 16-8z" fill="#13130F"/>
<path transform="translate(625,152)" d="m0 0h14l13 3 17 9 13 12 7 11 5 13 2 11v12l-2 12-6 14-8 11-11 9-10 6h-2l1 4 5 5-1 5-3 4 3 10 6 15 7 21 4 17 2 19v11l-3 21-4 14-8 17-9 13-11 12-9 8-17 11-16 9-5 4 1 7 14 33 6 18v4l2 1-7 2-17 8-17 12-6 7-7 11-4 7-5 21-1 7v15l3 11 4 10 8 14 4 8 6 1 1 3-6 5-8 7-9 12-4 13-1 14 2 12 6 14 8 11 4 3-1 3-28 10h-3l1-4 4-10 2-14-2-15-5-15-15-34-1-4-7-14-27-60-3-10-2-6-10-9-8-12-5-14-1-4v-17l6-32 5-8 3-1h7l6 5v11l-5 22v19l3 8 5 8 8 7 10 4h14l11-4 8-6 8-9 5-16 3-17 3-13-4-2 1-13v-10l-3-7-6-4-18-6 1-2 20-6 15-6 16-7 23-13 11-7 13-11 7-7 10-14 9-19 4-16v-31l-3-18-5-17-8-20-14-26-8-12-9-11-16-17-8-7-13-10-15-9-15-8-19-7-11-3-10-1-5 10-9 8-8 4-10 3-17 1-12-3-6-4v-6l3-1-2-4 8 1h11l16-2 12-4 5-5 1-6-4-6-2-4 10 1 23 5 16 6 28 14 5-1 5-9 7-12 6-7 10-7 11-5z" fill="#EBC2A6"/>
<path transform="translate(638,571)" d="m0 0h22l15 3 12 5 13 9 8 8 6 10 3 12v8l-3 10-6 9-8 6-5 2h-8l-7-3-5-5-9-10-9-4h-11l-6 3-3 4v8l3 5 8 4 32 10 19 9 10 9 7 8 7 14 3 12v17l-3 13-8 16-9 10-11 8-14 7-16 4-8 1h-23l-14-2-16-5-12-7-10-9-7-12-2-6v-18l5-13 7-7 6-3h8l8 4 6 7 9 6 11 4 16 1 8-2 4-4 1-7-3-5-5-4-11-4-18-5-18-8-11-8-9-9-8-13-3-9-2-12v-9l3-16 8-16 7-9 10-9 16-8 13-4z" fill="#13130F"/>
<path transform="translate(216,570)" d="m0 0h12l12 4 9 6 7 9 4 11 1 9-1 164-5 13-9 10-12 6-8 2h-8l-12-3-9-6-7-7-5-10-2-11v-162l2-10 5-10 5-6 10-6z" fill="#13130F"/>
<path transform="translate(430,82)" d="m0 0h30l30 2 26 4 31 7 29 9 29 12 16 8 7 4-1 2-21 5-12 5-11 7-10 9-8 10-3 3-24-10-16-5-22-5v-8l-2-9-4-8-8-7-11-4h-17l-13 4-11 6-10 8-8 9-3 6-13 2-31 6-24 8-13 6h-4l-7-10-5-6-11-8-16-8-16-5-4-1v-2l5-3 19-10 19-8 31-10 32-8 29-5z" fill="#50B27B"/>
<path transform="translate(213,365)" d="m0 0h1l1 25 4 10 10 11 8 10 14 15 10 9 10 7 19 12 16 9 18 8 28 11-1 2-21 4-10 5-5 6-2 6-1 15-1 1 7 4 3 3 5 27 4 12 6 9 5 5-2 10-5 14-6 21-12 39-7 21-1 7h-2l-2 9-7 21-7 26-1 16-4-2-5-4-4-2v-84l-1-85-5-14-5-9h2v-7l5-20 8-20 13-27v-6l-4-4-17-9-14-10-11-9-7-7-10-13-8-16-5-14-3-15-1-7z" fill="#EBC2A6"/>
<path transform="translate(479,516)" d="m0 0h7l6 5v11l-5 22v19l3 8 5 8 8 7 10 4h14l11-4 8-6 8-9 5-16 3-17 2-9 5-4 2-1h8l5 5 1 8-5 27-4 12-10 15-2 4-5 21-1 7v15l3 11 4 10 8 14 4 8 6 1 1 3-6 5-8 7-9 12-4 13-1 14 2 12 6 14 8 11 4 3-1 3-28 10h-3l1-4 4-10 2-14-2-15-5-15-15-34-1-4-7-14-27-60-3-10-2-6-10-9-8-12-5-14-1-4v-17l6-32 5-8z" fill="#EBC2A7"/>
<path transform="translate(255,152)" d="m0 0h13l10 2 12 5 11 8 9 11 7 15 2 2h8l4-3 2 1-2 3 1 4-18 12-10 8-12 11-8 7-7 8-7 7-13 18-11 18-8 16-4 2-2-4 2-10-5-6 2-5 4-4v-3l-11-6-10-9-7-8-7-13-3-14v-15l3-14 6-12 12-14 13-10 11-5z" fill="#EBC2A7"/>
<path transform="translate(323,302)" d="m0 0h14l13 4 6 4 8 7 7 11 3 9 1 13-3 14-6 11-6 7-11 7-11 4h-21l-10-4-11-8-6-7-6-13-1-4v-18l4-12 7-10 9-8 11-5z" fill="#13130F"/>
<path transform="translate(557,302)" d="m0 0h16l12 4 11 7 8 10 4 8 2 7 1 12-3 14-7 13-7 7-12 7-6 2h-19l-10-3-9-5-9-8-8-14-2-7v-16l4-13 6-9 7-7 6-4 11-4z" fill="#13130F"/>
<path transform="translate(479,516)" d="m0 0h7l6 5v11l-5 22v19l3 8 5 8 8 7 10 4h14l11-4 8-6 8-9 5-16 3-17 2-9 5-4 2-1h8l5 5 1 8-5 27-4 12-11 16-9 8-11 7-11 4-4 1h-20l-13-4-8-5-10-9-8-12-5-14-1-4v-17l6-32 5-8z" fill="#13130F"/>
<path transform="translate(255,152)" d="m0 0h13l10 2 12 5 11 8 9 11 2 4v5h-14l-17 3-13 5-11 7-9 9-6 10-5 18-4-1v-2l-5-2-10-9-6-10-3-9v-13l2-9v-4l4-7 9-8 11-7 10-4z" fill="#FDF5EB"/>
<path transform="translate(625,152)" d="m0 0h14l13 3 12 6 5 5 6 9 5 8 2 12v13l-8 16-13 13-5 1-8-19-6-10-9-9-16-8-11-3-19-2-7-1 1-6 8-11 10-8 13-6z" fill="#FDF5EC"/>
<path transform="translate(604,370)" d="m0 0 9 2 9 3 8 6 7 9 4 10 1 5v8l-4 11-9 11-11 7-9 2-11-1-13-4-9-8-6-10-2-6v-14l3-7h-13v-1l18-1 12-5 9-7 6-8z" fill="#E7A16B"/>
<path transform="translate(287,368)" d="m0 0 9 12 12 9 9 3 20 1v1h-15l3 11v7l-3 10-5 8-7 7-10 5-3 1h-19l-12-6-7-7-5-10-2-12 2-14 5-9 8-8 13-6h7z" fill="#E6A16B"/>
<path transform="translate(406,507)" d="m0 0h73v4l-2 4 2 2-4 2-3 6-6 32-1 16h-1l-1-11-2 3-5-1-10-7-12-5-10-2-17-2h-8l-3-9-2-8v-7l3-6 4-2h7l-2-5z" fill="#EBC2A7"/>
<path transform="translate(736,496)" d="m0 0 4 1 3 3 6 15 5 4 16 6 2 1 1 4-4 4-12 4-6 4-5 8-4 11-5 2-5-4-5-13-5-6-15-5-4-5 1-4 8-4 11-4 5-8 6-12z" fill="#FCF3E9"/>
<path transform="translate(159,481)" d="m0 0 4 1 3 3 6 15 6 5 13 4 4 3v5l-4 3-17 6-3 4-5 15-3 3-5-1-3-5-5-12-6-5-15-6-3-3 1-4 3-3 12-4 6-4 4-7 4-10z" fill="#FCF3E9"/>
<path transform="translate(578,693)" d="m0 0h5v3l-5 4-8 7-9 12-4 13-1 14 2 12 6 14 8 11 4 3-1 3-28 10h-3l1-4 4-10 2-14-2-15-5-15-15-34v-2l36-8z" fill="#50B17B"/>
<path transform="translate(440,348)" d="m0 0h10l8 4 2 4v7l-4 7v1h6l6-7h6l5 4v9l-5 8-6 4-3 1h-9l-6-3-2-2-4 1-8 4h-8l-8-4-5-6-2-7 3-7 1-2h7l7 7 6 1-5-13 2-7z" fill="#13140F"/>
<path transform="translate(310,533)" d="m0 0 7 1 4 4 5 27 4 12 6 9 5 5-2 10-4 10h-4l-9-7-7-8-7-15-4-16-3-19 1-7 5-5z" fill="#13130F"/>
<path transform="translate(277,692)" d="m0 0 9 2 21 6-2 9-8 24-7 26-1 16-4-2-5-4-3-2z" fill="#50B27B"/>
<path transform="translate(407,784)" d="m0 0h32l3 10 7 11 5 6-1 1-36-1-20-2-3-1 2-4 6-10z" fill="#50B17B"/>
<path transform="translate(417,650)" d="m0 0h2l6 16 9 30 3 11h-34l2-10 10-39z" fill="#FAF1E6"/>
<path transform="translate(578,693)" d="m0 0h5v3l-5 4-8 7-9 12-2 3-15 3h-7l-8-18v-2l36-8z" fill="#13120E"/>
<path transform="translate(748,356)" d="m0 0 5 1 4 6 3 6 7 3 1 1v5l-9 5-4 8-2 2-6-1-5-9-8-5-2-4 5-5 6-2 2-7z" fill="#FCF2E8"/>
<path transform="translate(277,692)" d="m0 0 9 2 21 6-2 9-5 13-23-6z" fill="#13120E"/>
<path transform="translate(401,516)" d="m0 0 9 1 4 6 4 18 1 7h-20l-3-9-2-8v-7l3-6z" fill="#13130F"/>
<path transform="translate(142,352)" d="m0 0h5l5 7 5 3v5l-6 5-4 5-6-1-3-4v-2l-5-2-1-5 4-4h2l2-4z" fill="#FBF1E6"/>
<path transform="translate(303,340)" d="m0 0h6l6 5 1 2v7l-5 6-7 1-3-1-5-6v-7l5-6z" fill="#F9EFE2"/>
<path transform="translate(539,340)" d="m0 0h6l5 3 2 3v8l-5 6-6 1-5-3-4-5 1-7 5-5z" fill="#FAEEE1"/>
<path transform="translate(675,290)" d="m0 0 4 1 8 16-1 8-1 7-5-3-3-11-2-1-1 7-4-6-1-12 4-5z" fill="#140F0E"/>
<path transform="translate(562,566)" d="m0 0h2l2 5v7l2 1-3 2-1-1v2h3l-2 7-7 7-2 3h-2l-2 4h-2l-2 4-2-2 3-1v-2h2l2-4 1-4-8 2-1-5 7-7 4-6h2l2-4 1 3 2-2-2-6z" fill="#15110F"/>
<path transform="translate(564,541)" d="m0 0 1 2 8 1 4 4v10l-2 11-3 5-2-1 1-10v-3l-7 1-1 2-1-5v-10z" fill="#150F0E"/>
<path transform="translate(473,167)" d="m0 0 5 1-5 4-7 8-1 4 1 1h12l-1 2h-2v2l-7 1-12-1-3-9-2-2 9-6 7-3z" fill="#140F0E"/>
<path transform="translate(205,152)" d="m0 0 3 1 4 4-5 3h-2l-2 3h-2l-2 9-1 4-4 8-4 2-1 3-1-3 2-4v-4h-2l3-10 9-10z" fill="#140F0E"/>
<path transform="translate(588,387)" d="m0 0 3 1-12 6-7 3v20l4 9 9 10 10 4 4 1h14l10-3-3 3-11 3-11-1-13-4-9-8-6-10-2-6v-14l3-7h-13v-1l18-1z" fill="#EBBFA1"/>
<path transform="translate(475,518)" d="m0 0h2l3 4 5 3 1 1v13l-3 14h-3l3-17-1-8-1-1h-5l-2 2h-2v-6z" fill="#140F0E"/>
<path transform="translate(672,419)" d="m0 0h1l-1 7-9 17-10 13-3-1 7-10 6-10z" fill="#F8E3D1"/>
<path transform="translate(283,704)" d="m0 0 3 1-1 4 5 3 3-1 1-5 2 1v6l-2 3-3 2h-7v-2l-2-1-2-3v-6z" fill="#140F0E"/>
<path transform="translate(629,488)" d="m0 0 2 2-3 1v2l-5 3-6 10-5-1v-6h2l1-4h3v-2l4-2h3v-2z" fill="#150F0E"/>
<path transform="translate(695,171)" d="m0 0 4 4 1 4 3 5v4l3 1v3h2l5 5 1 3-5-1-4-5v-2h-3l-2-7h-4l-1-2 1-3z" fill="#150F0E"/>
<path transform="translate(253,398)" d="m0 0h1l1 17 4 11 8 9 14 6 16 1v1h-19l-12-6-7-7-5-10-2-12z" fill="#ECC3A8"/>
<path transform="translate(246,485)" d="m0 0 9 1 2 4-1 5-6-2-4-3-1-4z" fill="#140F0E"/>
<path transform="translate(287,368)" d="m0 0 2 2-1 4h-9l-12 6-8 8v-3l8-8 13-6h7z" fill="#EBC1A4"/>
<path transform="translate(604,370)" d="m0 0 9 2 9 3 3 3-9-3-11-2-2 5-6 5v-3l6-8z" fill="#EBBC9C"/>
<path transform="translate(480,559)" d="m0 0 2 1v2h3v9l-5 1-1-9z" fill="#140F0E"/>
<path transform="translate(202,175)" d="m0 0 1 4-4 9h-2l-1 6-1 2h-2l1-7 5-10z" fill="#150F0E"/>
<path transform="translate(662,439)" d="m0 0 1 4-10 13-3-1 7-10z" fill="#F6DEC9"/>
<path transform="translate(474,155)" d="m0 0v3l-8 10-8 6-3 2-4-1 9-5 6-5 1-3h2l2-5z" fill="#EAB997"/>
<path transform="translate(679,153)" d="m0 0 3 3h-2l3 6 3 3 1 5-5-5-5-6z" fill="#140F0E"/>
<path transform="translate(628,476)" d="m0 0 3 1-7 6-8 2v-2z" fill="#14100E"/>
<path transform="translate(553,707)" d="m0 0 1 2 2 1-3 7h-2l-1 5-2-4 4-7 1-2-3-1z" fill="#150F0E"/>
<path transform="translate(653,455)" d="m0 0 2 1-15 15-1-3 8-7z" fill="#14100E"/>
<path transform="translate(691,183)" d="m0 0 3 1 1 1v6l-2 3h-2l-1-7z" fill="#140F0E"/>
<path transform="translate(239,456)" d="m0 0 4 2 7 7-3 1-6-5z" fill="#14100E"/>
<path transform="translate(563,542)" d="m0 0 2 2 1 6-2 4-2 1z" fill="#13130F"/>
<path transform="translate(591,594)" d="m0 0h3l-1 4h-3l-2 5-2-1 2-4z" fill="#14100E"/>
<path transform="translate(208,254)" d="m0 0 7 6 3 3-1 2-6-4-3-4z" fill="#14100E"/>
<path transform="translate(672,419)" d="m0 0h1l-1 7-3 4-1-4z" fill="#F6DDC9"/>
</svg>
